<svg width="26" height="26" viewBox="0 0 26 26" fill="none" xmlns="http://www.w3.org/2000/svg">
<rect width="26" height="26" rx="4" fill="black"/>
<path d="M11.873 22.9395C11.3229 22.9395 10.8659 22.876 10.502 22.749C10.138 22.6305 9.85026 22.4951 9.63867 22.3428C9.42708 22.1904 9.27897 22.0465 9.19434 21.9111C9.1097 21.7673 9.06738 21.6742 9.06738 21.6318C9.06738 21.4795 9.10124 21.3187 9.16895 21.1494C9.23665 20.9717 9.32129 20.8109 9.42285 20.667C9.52441 20.5146 9.63444 20.3877 9.75293 20.2861C9.87142 20.1846 9.97721 20.1338 10.0703 20.1338C10.1888 20.1338 10.2861 20.21 10.3623 20.3623C10.3792 20.3792 10.4215 20.4215 10.4893 20.4893C10.557 20.557 10.6501 20.6289 10.7686 20.7051C10.8955 20.7728 11.0479 20.8363 11.2256 20.8955C11.4118 20.9548 11.6276 20.9844 11.873 20.9844C12.4062 20.9844 12.8421 20.8236 13.1807 20.502C13.5192 20.1719 13.6885 19.7275 13.6885 19.1689C13.6885 18.7796 13.5954 18.4326 13.4092 18.1279C13.2314 17.8232 12.9945 17.5397 12.6982 17.2773C12.402 17.015 12.0635 16.7611 11.6826 16.5156C11.3018 16.2617 10.9124 15.9993 10.5146 15.7285C10.1169 15.4577 9.72754 15.1657 9.34668 14.8525C8.96582 14.5394 8.62728 14.1797 8.33105 13.7734C8.03483 13.3672 7.79362 12.9102 7.60742 12.4023C7.42969 11.8861 7.34082 11.2979 7.34082 10.6377C7.34082 10.0706 7.43815 9.49935 7.63281 8.92383C7.82747 8.34831 8.09408 7.80241 8.43262 7.28613C8.77962 6.76139 9.18587 6.27474 9.65137 5.82617C10.1169 5.36914 10.6204 4.97559 11.1621 4.64551C11.7038 4.30697 12.2666 4.0446 12.8506 3.8584C13.443 3.66374 14.0355 3.56641 14.6279 3.56641C15.1357 3.56641 15.5928 3.64681 15.999 3.80762C16.4053 3.96842 16.748 4.19694 17.0273 4.49316C17.3066 4.78092 17.5225 5.13216 17.6748 5.54688C17.8271 5.95312 17.9033 6.41016 17.9033 6.91797C17.9033 7.40039 17.8187 7.87435 17.6494 8.33984C17.4801 8.80534 17.2559 9.24544 16.9766 9.66016C16.6973 10.0749 16.3799 10.46 16.0244 10.8154C15.6774 11.1624 15.3177 11.4671 14.9453 11.7295C14.5814 11.9834 14.2259 12.1823 13.8789 12.3262C13.5319 12.4701 13.2272 12.542 12.9648 12.542C12.7363 12.542 12.529 12.4912 12.3428 12.3896C12.165 12.2796 12.0127 12.1484 11.8857 11.9961C11.7673 11.8353 11.6742 11.6702 11.6064 11.501C11.5387 11.3232 11.5049 11.1667 11.5049 11.0312C11.5049 10.9212 11.5176 10.8493 11.543 10.8154C11.5768 10.7816 11.6191 10.7689 11.6699 10.7773C11.7292 10.7773 11.8011 10.79 11.8857 10.8154C11.9704 10.8324 12.0677 10.8408 12.1777 10.8408C12.5332 10.8408 12.9268 10.7181 13.3584 10.4727C13.79 10.2272 14.1963 9.91406 14.5771 9.5332C14.958 9.15234 15.2754 8.7334 15.5293 8.27637C15.7917 7.81934 15.9229 7.375 15.9229 6.94336C15.9229 6.50326 15.8128 6.15625 15.5928 5.90234C15.3812 5.64844 15.0173 5.52148 14.501 5.52148C14.1794 5.52148 13.8281 5.58496 13.4473 5.71191C13.0749 5.8304 12.6982 5.99967 12.3174 6.21973C11.9365 6.43978 11.5684 6.70638 11.2129 7.01953C10.8574 7.33268 10.5443 7.67969 10.2734 8.06055C10.0026 8.43294 9.78255 8.83919 9.61328 9.2793C9.45247 9.71094 9.37207 10.1637 9.37207 10.6377C9.37207 11.137 9.46094 11.5856 9.63867 11.9834C9.82487 12.3727 10.0661 12.7282 10.3623 13.0498C10.667 13.3714 11.0098 13.6676 11.3906 13.9385C11.7715 14.2093 12.1608 14.4801 12.5586 14.751C12.9564 15.0133 13.3457 15.2884 13.7266 15.5762C14.1074 15.8555 14.446 16.1686 14.7422 16.5156C15.0469 16.8542 15.2881 17.235 15.4658 17.6582C15.652 18.0729 15.7451 18.5511 15.7451 19.0928C15.7451 19.6175 15.6436 20.1169 15.4404 20.5908C15.2458 21.0563 14.9749 21.4626 14.6279 21.8096C14.2809 22.1566 13.8704 22.4316 13.3965 22.6348C12.9225 22.8379 12.4147 22.9395 11.873 22.9395Z" fill="white"/>
</svg>
